<?xml version="1.0" encoding="UTF-8"?>
<svg xmlns="http://www.w3.org/2000/svg" xmlns:xlink="http://www.w3.org/1999/xlink" width="150px" height="57px" viewBox="0 0 150 57" version="1.1">
<g id="surface1">
<path style=" stroke:none;fill-rule:nonzero;fill:rgb(0%,0%,0%);fill-opacity:1;" d="M 98.09375 0.261719 C 98 0.414062 96.359375 3.667969 94.4375 7.503906 L 90.960938 14.488281 L 94.4375 21.433594 C 96.335938 25.257812 97.902344 28.464844 97.902344 28.558594 C 97.902344 28.65625 96.347656 31.847656 94.449219 35.660156 L 90.984375 42.570312 L 94.59375 49.757812 L 98.199219 56.941406 L 117.1875 56.941406 L 120.6875 49.957031 L 124.1875 42.988281 L 133.265625 42.988281 C 138.261719 42.988281 142.453125 42.953125 142.582031 42.917969 C 142.761719 42.867188 143.78125 40.945312 146.417969 35.695312 L 150.023438 28.546875 L 146.429688 21.339844 L 142.820312 14.132812 L 124.25 14.132812 L 120.722656 7.089844 L 117.1875 0.0585938 L 107.730469 0.0234375 L 98.269531 0 Z M 120.140625 7.601562 L 123.570312 14.429688 L 116.710938 28.085938 L 107.671875 28.121094 L 98.617188 28.144531 L 95.210938 21.316406 L 91.792969 14.488281 L 95.234375 7.601562 L 98.675781 0.710938 L 107.695312 0.734375 L 116.710938 0.773438 Z M 145.773438 21.707031 L 149.203125 28.558594 L 145.800781 35.363281 L 142.394531 42.15625 L 124.25 42.15625 L 120.84375 35.328125 L 117.425781 28.5 L 120.84375 21.671875 L 124.25 14.84375 L 142.347656 14.84375 Z M 120.140625 35.742188 L 123.570312 42.570312 L 120.140625 49.421875 L 116.710938 56.289062 L 98.675781 56.289062 L 95.234375 49.386719 L 91.792969 42.5 L 95.222656 35.671875 L 98.652344 28.855469 L 107.683594 28.878906 L 116.710938 28.914062 Z M 120.140625 35.742188 "/>
<path style=" stroke:none;fill-rule:nonzero;fill:rgb(0%,0%,0%);fill-opacity:1;" d="M 109.175781 13.953125 L 104.703125 18.417969 L 103.242188 16.683594 C 102.117188 15.34375 101.726562 14.960938 101.535156 14.984375 C 101.023438 15.058594 101.203125 15.4375 102.496094 16.945312 C 103.207031 17.789062 103.945312 18.667969 104.132812 18.90625 C 104.335938 19.15625 104.574219 19.355469 104.667969 19.355469 C 104.882812 19.355469 114.160156 10.105469 114.160156 9.890625 C 114.160156 9.808594 114.042969 9.691406 113.914062 9.605469 C 113.675781 9.488281 113.296875 9.84375 109.175781 13.953125 Z M 109.175781 13.953125 "/>
<path style=" stroke:none;fill-rule:nonzero;fill:rgb(0%,0%,0%);fill-opacity:1;" d="M 127.394531 22.730469 C 126.988281 23.132812 126.953125 23.59375 127 27.800781 C 127.023438 30.566406 127.074219 31.597656 127.179688 31.730469 C 127.417969 32.003906 127.25 32.0625 126.171875 32.0625 L 125.175781 32.0625 L 125.222656 32.941406 C 125.269531 33.914062 125.445312 34.222656 126.113281 34.507812 C 126.632812 34.734375 139.867188 34.734375 140.496094 34.519531 C 141.148438 34.296875 141.394531 33.84375 141.394531 32.917969 L 141.394531 32.121094 L 140.386719 32.0625 C 139.558594 32.015625 139.390625 31.96875 139.4375 31.824219 C 139.472656 31.730469 139.507812 29.710938 139.535156 27.335938 L 139.558594 23.039062 L 139.273438 22.742188 L 138.976562 22.445312 L 127.679688 22.445312 Z M 138.988281 23 C 139.1875 23.179688 139.199219 23.476562 139.199219 27.3125 C 139.199219 30.671875 139.164062 31.46875 139.035156 31.660156 C 138.867188 31.871094 138.667969 31.882812 133.351562 31.882812 C 128.863281 31.882812 127.808594 31.847656 127.652344 31.71875 C 127.476562 31.574219 127.453125 31.125 127.453125 27.394531 C 127.453125 23.691406 127.476562 23.214844 127.652344 23.015625 C 127.832031 22.8125 128.164062 22.800781 133.304688 22.800781 C 138.214844 22.800781 138.785156 22.824219 138.988281 23 Z M 141.074219 32.691406 C 141.148438 33.070312 140.980469 33.726562 140.730469 33.972656 C 140.519531 34.1875 140.28125 34.199219 133.292969 34.199219 C 125.007812 34.199219 125.683594 34.296875 125.578125 33.070312 L 125.53125 32.417969 L 133.277344 32.441406 C 140.71875 32.476562 141.039062 32.488281 141.074219 32.691406 Z M 141.074219 32.691406 "/>
<path style=" stroke:none;fill-rule:nonzero;fill:rgb(0%,0%,0%);fill-opacity:1;" d="M 128.222656 23.441406 L 127.925781 23.738281 L 127.925781 30.980469 L 128.234375 31.21875 C 128.542969 31.457031 128.675781 31.46875 133.351562 31.46875 L 138.144531 31.46875 L 138.429688 31.171875 L 138.726562 30.886719 L 138.726562 27.335938 C 138.726562 24.011719 138.714844 23.761719 138.5 23.5 L 138.273438 23.214844 L 133.398438 23.179688 L 128.519531 23.144531 Z M 138.15625 23.714844 C 138.359375 23.890625 138.371094 24.164062 138.371094 27.324219 C 138.371094 30.269531 138.347656 30.769531 138.179688 30.921875 C 138.027344 31.089844 137.421875 31.113281 133.375 31.113281 C 130.40625 31.113281 128.664062 31.066406 128.507812 30.992188 C 128.296875 30.875 128.285156 30.707031 128.285156 27.40625 C 128.285156 24.355469 128.308594 23.917969 128.484375 23.726562 C 128.664062 23.523438 128.972656 23.511719 133.304688 23.511719 C 137.445312 23.511719 137.953125 23.535156 138.15625 23.714844 Z M 138.15625 23.714844 "/>
<path style=" stroke:none;fill-rule:nonzero;fill:rgb(0%,0%,0%);fill-opacity:1;" d="M 102.910156 37.785156 C 102.828125 37.871094 102.769531 37.988281 102.769531 38.058594 C 102.769531 38.117188 103.753906 39.164062 104.964844 40.375 L 107.160156 42.570312 L 104.941406 44.792969 C 103.066406 46.667969 102.734375 47.0625 102.839844 47.226562 C 102.910156 47.332031 103.03125 47.453125 103.113281 47.476562 C 103.195312 47.5 104.265625 46.539062 105.476562 45.316406 L 107.695312 43.105469 L 109.925781 45.339844 C 111.789062 47.203125 112.179688 47.535156 112.347656 47.429688 C 112.453125 47.359375 112.570312 47.238281 112.59375 47.15625 C 112.617188 47.074219 111.65625 46.003906 110.433594 44.792969 L 108.238281 42.570312 L 110.433594 40.351562 C 111.65625 39.140625 112.617188 38.070312 112.59375 37.988281 C 112.570312 37.90625 112.453125 37.785156 112.347656 37.714844 C 112.179688 37.609375 111.789062 37.941406 109.914062 39.816406 L 107.695312 42.039062 L 105.5 39.839844 C 104.289062 38.628906 103.242188 37.644531 103.183594 37.644531 C 103.113281 37.644531 102.996094 37.703125 102.910156 37.785156 Z M 102.910156 37.785156 "/>
<path style=" stroke:none;fill-rule:nonzero;fill:rgb(0%,0%,0%);fill-opacity:1;" d="M 6.289062 20.140625 C 4.210938 20.6875 2.730469 22.253906 2.066406 24.582031 C 1.769531 25.601562 1.695312 29.378906 1.945312 30.648438 C 2.457031 33.273438 4.09375 35.160156 6.300781 35.683594 C 9.125 36.347656 11.796875 35.171875 12.984375 32.75 C 13.71875 31.242188 13.824219 30.648438 13.824219 27.90625 C 13.824219 25.746094 13.789062 25.363281 13.550781 24.546875 C 13.183594 23.273438 12.816406 22.585938 12.058594 21.753906 C 10.644531 20.234375 8.355469 19.59375 6.289062 20.140625 Z M 9.578125 21.515625 C 10.835938 21.980469 11.867188 23.347656 12.28125 25.078125 C 12.554688 26.265625 12.53125 29.746094 12.222656 30.921875 C 11.796875 32.597656 10.976562 33.675781 9.671875 34.28125 C 9.054688 34.566406 8.816406 34.617188 7.832031 34.617188 C 6.871094 34.617188 6.609375 34.566406 6.050781 34.308594 C 4.722656 33.675781 3.890625 32.621094 3.441406 30.96875 C 3.203125 30.113281 3.167969 29.710938 3.167969 27.90625 C 3.179688 25.042969 3.523438 23.773438 4.652344 22.492188 C 5.742188 21.246094 7.785156 20.839844 9.578125 21.515625 Z M 9.578125 21.515625 "/>
<path style=" stroke:none;fill-rule:nonzero;fill:rgb(0%,0%,0%);fill-opacity:1;" d="M 78.511719 20.140625 C 76.4375 20.640625 74.964844 22.207031 74.324219 24.582031 C 74.015625 25.699219 74.015625 29.878906 74.324219 30.992188 C 75.011719 33.558594 76.484375 35.101562 78.796875 35.695312 C 79.378906 35.851562 79.867188 35.875 80.816406 35.828125 C 82.761719 35.71875 84.246094 35.234375 85.195312 34.378906 L 85.679688 33.9375 L 85.679688 28.261719 L 80.222656 28.261719 L 80.222656 29.449219 L 84.257812 29.449219 L 84.257812 31.445312 C 84.257812 33.726562 84.304688 33.617188 83.1875 34.128906 C 82.308594 34.519531 81.085938 34.722656 79.949219 34.640625 C 77.742188 34.484375 76.164062 32.988281 75.652344 30.554688 C 75.425781 29.496094 75.425781 26.113281 75.640625 25.078125 C 75.890625 23.941406 76.449219 22.90625 77.195312 22.230469 C 78.0625 21.433594 78.761719 21.195312 80.222656 21.195312 C 81.207031 21.207031 81.445312 21.246094 82.097656 21.542969 C 83 21.957031 83.675781 22.679688 84.019531 23.582031 C 84.148438 23.941406 84.257812 24.308594 84.257812 24.402344 C 84.257812 24.546875 84.421875 24.582031 84.96875 24.582031 L 85.691406 24.582031 L 85.609375 24.128906 C 85.324219 22.539062 84.375 21.269531 82.960938 20.554688 C 81.847656 19.984375 79.902344 19.808594 78.511719 20.140625 Z M 78.511719 20.140625 "/>
<path style=" stroke:none;fill-rule:nonzero;fill:rgb(0%,0%,0%);fill-opacity:1;" d="M 17.089844 27.90625 L 17.089844 35.625 L 19.734375 35.625 C 22.738281 35.625 23.414062 35.519531 24.695312 34.839844 C 26.097656 34.105469 27.175781 32.726562 27.746094 30.945312 C 28.054688 30.007812 28.03125 25.734375 27.722656 24.820312 C 27.105469 22.976562 26.023438 21.636719 24.589844 20.910156 C 23.367188 20.292969 22.667969 20.1875 19.734375 20.1875 L 17.089844 20.1875 Z M 23.046875 21.613281 C 24.777344 22.148438 26.011719 23.511719 26.476562 25.414062 C 26.726562 26.398438 26.675781 29.53125 26.417969 30.519531 C 25.976562 32.144531 25.015625 33.34375 23.652344 34 C 22.84375 34.378906 22.84375 34.378906 20.625 34.414062 L 18.394531 34.460938 L 18.394531 28 C 18.394531 24.4375 18.429688 21.492188 18.476562 21.457031 C 18.511719 21.410156 19.390625 21.375 20.421875 21.375 C 21.941406 21.375 22.429688 21.421875 23.046875 21.613281 Z M 23.046875 21.613281 "/>
<path style=" stroke:none;fill-rule:nonzero;fill:rgb(0%,0%,0%);fill-opacity:1;" d="M 31.292969 20.269531 C 31.246094 20.304688 31.210938 23.785156 31.210938 27.988281 L 31.210938 35.625 L 40.953125 35.625 L 40.917969 35.054688 L 40.882812 34.496094 L 36.765625 34.460938 L 32.632812 34.4375 L 32.632812 28.261719 L 39.875 28.261719 L 39.875 27.074219 L 32.632812 27.074219 L 32.632812 21.375 L 36.765625 21.351562 L 40.882812 21.316406 L 40.917969 20.746094 L 40.953125 20.1875 L 36.160156 20.1875 C 33.523438 20.1875 31.328125 20.222656 31.292969 20.269531 Z M 31.292969 20.269531 "/>
<path style=" stroke:none;fill-rule:nonzero;fill:rgb(0%,0%,0%);fill-opacity:1;" d="M 45 27.824219 C 43.421875 32.015625 42.128906 35.484375 42.128906 35.53125 C 42.128906 35.589844 42.449219 35.625 42.828125 35.625 L 43.527344 35.625 L 44.039062 34.222656 C 44.3125 33.464844 44.65625 32.515625 44.808594 32.121094 L 45.070312 31.410156 L 48.558594 31.375 L 52.050781 31.351562 L 52.820312 33.453125 L 53.605469 35.566406 L 54.351562 35.601562 C 55.027344 35.636719 55.085938 35.613281 55.003906 35.421875 C 54.96875 35.304688 53.804688 32.242188 52.429688 28.617188 C 51.0625 24.996094 49.78125 21.613281 49.582031 21.101562 L 49.238281 20.1875 L 47.882812 20.1875 Z M 48.75 22.40625 C 48.808594 22.597656 49.460938 24.355469 50.1875 26.316406 C 50.910156 28.285156 51.503906 29.960938 51.503906 30.03125 C 51.503906 30.125 50.636719 30.164062 48.523438 30.164062 C 46.1875 30.164062 45.558594 30.125 45.59375 30.007812 C 46.210938 28.226562 48.5 22.085938 48.558594 22.085938 C 48.597656 22.085938 48.679688 22.230469 48.75 22.40625 Z M 48.75 22.40625 "/>
<path style=" stroke:none;fill-rule:nonzero;fill:rgb(0%,0%,0%);fill-opacity:1;" d="M 63.203125 23.535156 C 63.027344 25.390625 62.847656 27.085938 62.8125 27.324219 C 62.753906 27.738281 62.765625 27.75 63.273438 27.894531 C 63.785156 28.035156 63.808594 28.023438 64.414062 27.621094 C 65.945312 26.601562 68.246094 26.777344 69.328125 28.011719 C 70.027344 28.808594 70.195312 29.355469 70.195312 30.875 C 70.183594 32.515625 69.945312 33.226562 69.113281 33.949219 C 68.507812 34.484375 67.925781 34.675781 66.90625 34.675781 C 65.386719 34.675781 64.332031 34 63.855469 32.726562 C 63.726562 32.359375 63.609375 31.945312 63.609375 31.824219 C 63.609375 31.625 63.523438 31.585938 62.953125 31.585938 C 62.351562 31.585938 62.300781 31.609375 62.300781 31.859375 C 62.300781 32.015625 62.386719 32.417969 62.492188 32.773438 C 63.0625 34.710938 64.710938 35.863281 66.929688 35.863281 C 69.863281 35.863281 71.546875 34.046875 71.570312 30.863281 C 71.582031 29.496094 71.390625 28.679688 70.894531 27.835938 C 70.015625 26.375 68.828125 25.746094 66.953125 25.757812 C 66.015625 25.757812 64.972656 26.007812 64.472656 26.328125 C 64.128906 26.550781 64.128906 26.707031 64.4375 23.867188 C 64.570312 22.65625 64.675781 21.601562 64.675781 21.515625 C 64.675781 21.410156 65.421875 21.375 68 21.375 L 71.320312 21.375 L 71.320312 20.1875 L 63.535156 20.1875 Z M 63.203125 23.535156 "/>
<path style=" stroke:none;fill-rule:nonzero;fill:rgb(0%,0%,0%);fill-opacity:1;" d="M 57.082031 34.199219 C 56.9375 34.34375 56.84375 34.59375 56.84375 34.851562 C 56.84375 35.113281 56.9375 35.363281 57.082031 35.507812 C 57.222656 35.648438 57.472656 35.742188 57.734375 35.742188 C 57.996094 35.742188 58.242188 35.648438 58.386719 35.507812 C 58.527344 35.363281 58.625 35.113281 58.625 34.851562 C 58.625 34.59375 58.527344 34.34375 58.386719 34.199219 C 58.242188 34.058594 57.996094 33.960938 57.734375 33.960938 C 57.472656 33.960938 57.222656 34.058594 57.082031 34.199219 Z M 57.082031 34.199219 "/>
</g>
</svg>
