<?xml version="1.0" standalone="no"?>
<!DOCTYPE svg PUBLIC "-//W3C//DTD SVG 20010904//EN"
 "http://www.w3.org/TR/2001/REC-SVG-20010904/DTD/svg10.dtd">
<svg version="1.0" xmlns="http://www.w3.org/2000/svg"
 width="1264.000000pt" height="480.000000pt" viewBox="0 0 1264.000000 480.000000"
 preserveAspectRatio="xMidYMid meet">

<g transform="translate(0.000000,480.000000) scale(0.100000,-0.100000)"
fill="#000000" stroke="none">
<path d="M8266 4778 c-8 -13 -146 -287 -308 -610 l-293 -588 293 -585 c160
-322 292 -592 292 -600 0 -8 -131 -277 -291 -598 l-292 -582 304 -605 304
-605 800 0 800 0 295 588 295 587 765 0 c421 0 774 3 785 6 15 4 101 166 323
608 l304 602 -303 607 -304 607 -782 0 -783 0 -297 593 -298 592 -797 3 -797
2 -15 -22z m1858 -618 l289 -575 -289 -575 -289 -575 -762 -3 -763 -2 -287
575 -288 575 290 580 290 580 760 -2 760 -3 289 -575z m2160 -1188 l289 -577
-287 -573 -287 -572 -764 0 -765 0 -287 575 -288 575 288 575 287 575 763 0
762 0 289 -578z m-2160 -1182 l289 -575 -289 -577 -289 -578 -760 0 -760 0
-290 581 -290 580 289 575 289 574 761 -2 761 -3 289 -575z"/>
<path d="M9200 3625 l-377 -376 -123 146 c-95 113 -128 145 -144 143 -43 -6
-28 -38 81 -165 60 -71 122 -145 138 -165 17 -21 37 -38 45 -38 18 0 800 779
800 797 0 7 -10 17 -21 24 -20 10 -52 -20 -399 -366z"/>
<path d="M10735 2886 c-34 -34 -37 -73 -33 -427 2 -233 6 -320 15 -331 20 -23
6 -28 -85 -28 l-84 0 4 -74 c4 -82 19 -108 75 -132 44 -19 1159 -19 1212 -1
55 19 76 57 76 135 l0 67 -85 5 c-70 4 -84 8 -80 20 3 8 6 178 8 378 l2 362
-24 25 -25 25 -476 0 -476 0 -24 -24z m977 -23 c17 -15 18 -40 18 -363 0 -283
-3 -350 -14 -366 -14 -18 -31 -19 -479 -19 -378 0 -467 3 -480 14 -15 12 -17
50 -17 364 0 312 2 352 17 369 15 17 43 18 476 18 414 0 462 -2 479 -17z m176
-816 c6 -32 -8 -87 -29 -108 -18 -18 -38 -19 -627 -19 -698 0 -641 -8 -650 95
l-4 55 653 -2 c627 -3 654 -4 657 -21z"/>
<path d="M10805 2826 l-25 -25 0 -305 0 -305 26 -20 c26 -20 37 -21 431 -21
l404 0 24 25 25 24 0 299 c0 280 -1 301 -19 323 l-19 24 -411 3 -411 3 -25
-25z m837 -23 c17 -15 18 -38 18 -304 0 -248 -2 -290 -16 -303 -13 -14 -64
-16 -405 -16 -250 0 -397 4 -410 10 -18 10 -19 24 -19 302 0 257 2 294 17 310
15 17 41 18 406 18 349 0 392 -2 409 -17z"/>
<path d="M8672 1618 c-7 -7 -12 -17 -12 -23 0 -5 83 -93 185 -195 l185 -185
-187 -187 c-158 -158 -186 -191 -177 -205 6 -9 16 -19 23 -21 7 -2 97 79 199
182 l187 186 188 -188 c157 -157 190 -185 204 -176 9 6 19 16 21 23 2 7 -79
97 -182 199 l-185 187 185 187 c103 102 184 192 182 199 -2 7 -12 17 -21 23
-14 9 -47 -19 -205 -177 l-187 -187 -185 185 c-102 102 -190 185 -195 185 -6
0 -16 -5 -23 -12z"/>
<path d="M530 3104 c-175 -46 -300 -178 -356 -374 -25 -86 -31 -404 -10 -511
43 -221 181 -380 367 -424 238 -56 463 43 563 247 62 127 71 177 71 408 0 182
-3 214 -23 283 -31 107 -62 165 -126 235 -119 128 -312 182 -486 136z m277
-116 c106 -39 193 -154 228 -300 23 -100 21 -393 -5 -492 -36 -141 -105 -232
-215 -283 -52 -24 -72 -28 -155 -28 -81 0 -103 4 -150 26 -112 53 -182 142
-220 281 -20 72 -23 106 -23 258 1 241 30 348 125 456 92 105 264 139 415 82z"/>
<path d="M6616 3104 c-175 -42 -299 -174 -353 -374 -26 -94 -26 -446 0 -540
58 -216 182 -346 377 -396 49 -13 90 -15 170 -11 164 9 289 50 369 122 l41 37
0 239 0 239 -230 0 -230 0 0 -50 0 -50 170 0 170 0 0 -168 c0 -192 4 -183 -90
-226 -74 -33 -177 -50 -273 -43 -186 13 -319 139 -362 344 -19 89 -19 374 -1
461 21 96 68 183 131 240 73 67 132 87 255 87 83 -1 103 -4 158 -29 76 -35
133 -96 162 -172 11 -30 20 -61 20 -69 0 -12 14 -15 60 -15 l61 0 -7 38 c-24
134 -104 241 -223 301 -94 48 -258 63 -375 35z"/>
<path d="M1440 2450 l0 -650 223 0 c253 0 310 9 418 66 118 62 209 178 257
328 26 79 24 439 -2 516 -52 155 -143 268 -264 329 -103 52 -162 61 -409 61
l-223 0 0 -650z m502 530 c146 -45 250 -160 289 -320 21 -83 17 -347 -5 -430
-37 -137 -118 -238 -233 -293 -68 -32 -68 -32 -255 -35 l-188 -4 0 544 c0 300
3 548 7 551 3 4 77 7 164 7 128 0 169 -4 221 -20z"/>
<path d="M2637 3093 c-4 -3 -7 -296 -7 -650 l0 -643 411 0 410 0 -3 48 -3 47
-347 3 -348 2 0 260 0 260 305 0 305 0 0 50 0 50 -305 0 -305 0 0 240 0 240
348 2 347 3 3 48 3 47 -404 0 c-222 0 -407 -3 -410 -7z"/>
<path d="M3792 2457 c-133 -353 -242 -645 -242 -649 0 -5 27 -8 59 -8 l59 0
43 118 c23 64 52 144 65 177 l22 60 294 3 294 2 65 -177 66 -178 63 -3 c57 -3
62 -1 55 15 -3 10 -101 268 -217 573 -115 305 -223 590 -240 633 l-29 77 -57
0 -57 0 -243 -643z m316 456 c5 -16 60 -164 121 -329 61 -166 111 -307 111
-313 0 -8 -73 -11 -251 -11 -197 0 -250 3 -247 13 52 150 245 667 250 667 3 0
10 -12 16 -27z"/>
<path d="M5326 2818 c-15 -156 -30 -299 -33 -319 -5 -35 -4 -36 39 -48 43 -12
45 -11 96 23 129 86 323 71 414 -33 59 -67 73 -113 73 -241 -1 -138 -21 -198
-91 -259 -51 -45 -100 -61 -186 -61 -128 0 -217 57 -257 164 -11 31 -21 66
-21 76 0 17 -7 20 -55 20 -51 0 -55 -2 -55 -23 0 -13 7 -47 16 -77 48 -163
187 -260 374 -260 247 0 389 153 391 421 1 115 -15 184 -57 255 -74 123 -174
176 -332 175 -79 0 -167 -21 -209 -48 -29 -19 -29 -32 -3 207 11 102 20 191
20 198 0 9 63 12 280 12 l280 0 0 50 0 50 -328 0 -328 0 -28 -282z"/>
<path d="M4810 1920 c-12 -12 -20 -33 -20 -55 0 -22 8 -43 20 -55 12 -12 33
-20 55 -20 22 0 43 8 55 20 12 12 20 33 20 55 0 22 -8 43 -20 55 -12 12 -33
20 -55 20 -22 0 -43 -8 -55 -20z"/>
</g>
</svg>
